
<svg width="362px" height="96px" viewBox="0 0 362 96" version="1.1" xmlns="http://www.w3.org/2000/svg" xmlns:xlink="http://www.w3.org/1999/xlink">
    <g id="Page-1" stroke="none" stroke-width="1" fill="none" fill-rule="evenodd">
        <g id="IMP_ML_W_N" transform="translate(0.900000, 0.500000)" fill="#FFFFFF" fill-rule="nonzero">
            <polygon id="Path" points="5.68434189e-14 39.8 5.68434189e-14 1.9 7.4 1.9 7.4 39.8"></polygon>
            <path d="M18.4,15.9 L18.5,15.9 C20.3,13.5 23.7,12.1 26.8,12.1 C30.1,12.1 33,13.5 34.6,15.9 C36.8,13.7 40.2,12.1 43.4,12.1 C49.4,12 52.5,15.8 52.6,22 L52.6,39.8 L45.6,39.8 L45.6,23.3 C45.6,20.2 44.5,16.9 41.1,16.9 C37.7,16.9 35.6,19 35.6,23.7 L35.6,39.9 L28.6,39.9 L28.6,23.4 C28.6,19.6 27,17 24,17 C20.7,17 18.6,19.3 18.6,23.9 L18.6,39.9 L11.6,39.9 L11.6,12.8 L18.6,12.8 L18.6,15.9 L18.4,15.9 Z" id="Path"></path>
            <path d="M70.1,16.4 C74.1,16.4 76.1,21.1 76.1,25.7 C76.1,30.5 74.5,36.1 69.8,36.1 C66,36.1 63.3,32.3 63.3,26.6 C63.4,20.3 65.7,16.4 70.1,16.4 Z M63.4,12.7 L56.4,12.7 L56.4,53.4 L63.4,53.4 L63.4,36.5 C65.4,38.9 68.1,40.5 71.3,40.5 C78.8,40.5 83.6,32.9 83.6,25.7 C83.6,19.7 80.2,12.1 71.9,12.1 C68.7,12.1 65.3,13.7 63.5,16.5 L63.4,16.5 L63.4,12.7 Z" id="Shape"></path>
            <path d="M93.6,23 C93.5,19.4 95.3,16.1 99.4,16.1 C102.9,16.1 104.3,18.9 104,23 L93.6,23 Z M110.6,26.9 C111.1,18.8 107.7,12.1 99.5,12.1 C92,12.1 86,17.4 86,25.8 C86,34.7 92,40.5 99.9,40.5 C102.9,40.5 106.7,39.6 110.2,37.5 L108.2,33.7 C106.5,34.9 103.7,35.9 101.1,35.9 C96.7,35.9 93.2,32.1 93.4,27 L110.6,27 L110.6,26.9 Z" id="Shape"></path>
            <path d="M121,17.4 L121.1,17.4 L122.5,15.3 C123.3,14.2 124.9,12 127,12 C128.6,12 130.3,12.9 131.8,14.4 L129.2,19.4 C128,18.8 127.3,18.5 125.9,18.5 C123.5,18.5 121.1,20.5 121.1,26.4 L121.1,39.8 L114.1,39.8 L114.1,12.7 L121.1,12.7 L121.1,17.4 L121,17.4 Z" id="Path"></path>
            <path d="M141.1,12.7 L141.1,39.8 L134.1,39.8 L134.1,12.7 L141.1,12.7 Z M133.4,4.5 C133.4,2.4 135.1,0.3 137.5,0.3 C139.9,0.3 141.8,2.4 141.8,4.5 C141.8,6.8 140.2,9 137.6,9 C135.1,9.1 133.4,6.9 133.4,4.5 Z" id="Shape"></path>
            <path d="M160.1,24 C160.6,32 157,35.5 154.2,35.5 C152.5,35.5 151,33.9 151,31.5 C151,28.4 152.7,26.4 156.2,25.3 L160.1,24 Z M160,35.8 C160,37.3 160.2,38.8 160.7,39.8 L168.1,39.8 C167.3,37.9 167,35.4 167,33.2 L167,22.1 C167,13.6 161,12 156.2,12 C152.6,12 149.3,12.9 146.1,15.7 L148.4,19.1 C150.2,17.5 152.4,16.3 155.4,16.3 C157.7,16.3 159.8,17.9 160.2,20.4 L154,22.3 C147.9,24.1 144.2,27 144.2,32.2 C144.2,37.2 147.6,40.4 151.7,40.4 C154.1,40.4 156.5,38.7 158.5,37.1 L160,35.8 Z" id="Shape"></path>
            <polygon id="Path" points="171.4 39.8 171.4 -2.84217094e-14 178.4 -2.84217094e-14 178.4 39.8"></polygon>
            <path d="M224.7,8.7 C222.9,7.7 219.9,6.6 217,6.6 C209.4,6.6 203.9,12.1 203.9,20.7 C203.9,29.7 210,35 217.2,35 C220.1,35 222.7,34.2 224.6,33.1 L226.7,37.8 C224.4,39.2 220.5,40.4 216.9,40.4 C204.1,40.4 196,31.7 196,20.6 C196,10.2 204,1.2 217,1.2 C220.9,1.2 224.4,2.6 227,4.1 L224.7,8.7 Z" id="Path"></path>
            <path d="M240.7,36.4 C235.7,36.4 234.3,30.7 234.3,25.9 C234.3,21.4 235.9,16 240.7,16 C245.6,16 247.1,21.4 247.1,25.9 C247.1,30.7 245.8,36.4 240.7,36.4 Z M240.7,40.4 C249,40.4 254.6,34.3 254.6,25.9 C254.6,17.1 247.9,12 240.7,12 C233.6,12 226.9,17.1 226.9,25.9 C226.9,34.3 232.5,40.4 240.7,40.4 Z" id="Shape"></path>
            <polygon id="Path" points="257.6 39.8 257.6 -2.84217094e-14 264.6 -2.84217094e-14 264.6 39.8"></polygon>
            <polygon id="Path" points="269 39.8 269 -2.84217094e-14 276 -2.84217094e-14 276 39.8"></polygon>
            <path d="M286.6,23 C286.5,19.4 288.3,16.1 292.3,16.1 C295.8,16.1 297.2,18.9 296.9,23 L286.6,23 Z M303.6,26.9 C304.1,18.8 300.7,12.1 292.5,12.1 C285,12.1 279,17.4 279,25.8 C279,34.7 285,40.5 292.9,40.5 C295.9,40.5 299.7,39.6 303.2,37.5 L301.2,33.7 C299.5,34.9 296.7,35.9 294.1,35.9 C289.7,35.9 286.2,32.1 286.4,27 L303.6,27 L303.6,26.9 Z" id="Shape"></path>
            <path d="M343.9,23 C343.8,19.4 345.6,16.1 349.7,16.1 C353.2,16.1 354.6,18.9 354.3,23 L343.9,23 Z M360.9,26.9 C361.4,18.8 358,12.1 349.8,12.1 C342.3,12.1 336.3,17.4 336.3,25.8 C336.3,34.7 342.3,40.5 350.2,40.5 C353.2,40.5 357,39.6 360.5,37.5 L358.5,33.7 C356.8,34.9 354,35.9 351.4,35.9 C347,35.9 343.5,32.1 343.7,27 L360.9,27 L360.9,26.9 Z" id="Shape"></path>
            <path d="M320,16.4 C324.2,16.4 326.4,20.8 326.4,25.5 C326.4,30.9 324.4,36.1 319.7,36.1 C315.6,36.1 313.6,31 313.6,25.7 C313.6,20.5 315.4,16.4 320,16.4 Z M333.4,12.7 L326.4,12.7 L326.4,16 L326.3,16 C324.8,13.6 321.7,12 318.4,12 C311.2,12 306.2,18.8 306.2,25.9 C306.2,34.6 310.8,40.4 317.8,40.4 C321.8,40.4 324.6,38.1 326.3,35.8 L326.4,35.8 L326.4,39.4 C326.4,45.7 322.8,48.6 318.2,48.6 C314.6,48.6 311.6,47.9 309,46.3 L307.6,50.7 C310.7,52.3 314.7,53.3 318.7,53.3 C326.6,53.3 333.4,49.3 333.4,37.3 L333.4,12.7 Z" id="Shape"></path>
            <polygon id="Path" points="2.84217094e-14 56 7.5 56 7.5 88.8 23.3 88.8 23.3 93.9 0 93.9 0 56"></polygon>
            <path d="M64.4,70.1 C66.9,67.5 70.4,66.3 73.9,66.3 C80.4,66.3 83.5,69.8 83.5,76.6 L83.5,94.1 L76.4,94.1 L76.4,77.5 C76.4,73.7 74.7,71.2 70.8,71.2 C67.2,71.2 64.4,73.5 64.4,78 L64.4,94.2 L57.3,94.2 L57.3,67.1 L64.3,67.1 L64.3,70.1 L64.4,70.1 Z" id="Path"></path>
            <path d="M101.8,70.6 C106.2,70.6 108.5,75 108.5,79.7 C108.5,85.1 106.4,90.3 101.4,90.3 C97.1,90.3 95,85.2 95,79.9 C95.1,74.7 97,70.6 101.8,70.6 Z M108.5,94 L115.6,94 L115.6,54.2 L108.5,54.2 L108.5,70.1 L108.4,70.1 C106.7,67.7 103.5,66.3 99.9,66.3 C92.5,66.3 87.2,73.1 87.2,80.2 C87.2,88.9 92,94.7 99.3,94.7 C103.6,94.7 106.5,92.4 108.3,90.1 L108.4,90.1 L108.4,94 L108.5,94 Z" id="Shape"></path>
            <path d="M133.9,90.6 C128.6,90.6 127.2,84.9 127.2,80.1 C127.2,75.6 128.9,70.2 133.9,70.2 C139.1,70.2 140.7,75.6 140.7,80.1 C140.7,84.9 139.3,90.6 133.9,90.6 Z M133.9,94.6 C142.6,94.6 148.5,88.5 148.5,80.1 C148.5,71.3 141.4,66.2 133.9,66.2 C126.5,66.2 119.4,71.3 119.4,80.1 C119.3,88.5 125.2,94.6 133.9,94.6 Z" id="Shape"></path>
            <path d="M159.3,70.1 C161.8,67.5 165.3,66.3 168.8,66.3 C175.3,66.3 178.4,69.8 178.4,76.6 L178.4,94.1 L171.3,94.1 L171.3,77.5 C171.3,73.7 169.6,71.2 165.7,71.2 C162.1,71.2 159.3,73.5 159.3,78 L159.3,94.2 L152.2,94.2 L152.2,67.1 L159.2,67.1 L159.2,70.1 L159.3,70.1 Z" id="Path"></path>
            <path d="M38.9,90.6 C33.6,90.6 32.2,84.9 32.2,80.1 C32.2,75.6 33.9,70.2 38.9,70.2 C44.1,70.2 45.7,75.6 45.7,80.1 C45.7,84.9 44.3,90.6 38.9,90.6 Z M38.9,94.6 C47.6,94.6 53.5,88.5 53.5,80.1 C53.5,71.3 46.4,66.2 38.9,66.2 C31.5,66.2 24.4,71.3 24.4,80.1 C24.3,88.5 30.2,94.6 38.9,94.6 Z" id="Shape"></path>
        </g>
    </g>
</svg>